<?xml version="1.0" encoding="utf-8"?>
<!-- Generator: Adobe Illustrator 16.0.0, SVG Export Plug-In . SVG Version: 6.00 Build 0)  -->
<!DOCTYPE svg PUBLIC "-//W3C//DTD SVG 1.1//EN" "http://www.w3.org/Graphics/SVG/1.1/DTD/svg11.dtd">
<svg version="1.1" id="Layer_1" xmlns="http://www.w3.org/2000/svg" xmlns:xlink="http://www.w3.org/1999/xlink" x="0px" y="0px"
	 width="200px" height="40px" viewBox="0 0 200 40" enable-background="new 0 0 200 40" xml:space="preserve">
<g>
	<path fill="#7FA436" d="M24.483,24.441c0-0.464-0.38-0.842-0.844-0.842h-3.937c-0.464,0-0.843,0.378-0.843,0.842v6.188
		c0,0.462,0.379,0.842,0.843,0.842h3.937c0.464,0,0.844-0.38,0.844-0.842V24.441z M20.546,25.286h2.249v4.498h-2.249V25.286z
		 M20.546,25.286"/>
	<g>
		<polygon fill="none" points="12.202,16.993 12.202,17 12.202,31.957 31.139,31.957 31.139,17 31.14,16.993 21.671,8.694 		"/>
		<path fill="#666666" d="M35.326,18.116L22.302,6.701c-0.361-0.317-0.901-0.317-1.263,0L8.016,18.116
			c-0.397,0.347-0.438,0.954-0.089,1.352c0.349,0.397,0.954,0.438,1.351,0.089l1.008-0.884v14.242c0,0.529,0.429,0.958,0.958,0.958
			h20.853c0.528,0,0.957-0.429,0.957-0.958V18.672l1.009,0.884c0.181,0.158,0.406,0.238,0.631,0.238c0.265,0,0.531-0.113,0.72-0.327
			C35.763,19.069,35.724,18.463,35.326,18.116z M31.139,17v14.957H12.202V17c0-0.001,0-0.004,0-0.007l9.469-8.299l9.469,8.299
			C31.14,16.997,31.139,16.999,31.139,17z"/>
	</g>
	<path fill="#7FA436" d="M19.223,18.083c0,0.603,0.489,1.092,1.093,1.092h2.709c0.603,0,1.093-0.49,1.093-1.092
		c0-0.604-0.49-1.093-1.093-1.093h-2.709C19.712,16.99,19.223,17.479,19.223,18.083L19.223,18.083z M19.223,18.083"/>
</g>
<g>
	<path fill="none" d="M66.021,24.56c-0.535-0.131-2.265-0.752-2.144-3.253c0.013-0.277,0.188-0.522,0.449-0.621
		c1.412-0.544,2.223-2.188,2.223-4.51c0-2.607-1.743-4.729-3.887-4.729c-0.011,0-0.018,0-0.029,0c-0.008,0-0.016,0-0.026,0
		c-2.145,0-3.888,2.122-3.888,4.729c0,2.323,0.811,3.966,2.223,4.51c0.26,0.099,0.437,0.344,0.449,0.621
		c0.121,2.501-1.609,3.122-2.144,3.253c-3.696,0.906-4.611,1.994-4.739,4.402h8.124h8.128C70.632,26.554,69.717,25.466,66.021,24.56
		z"/>
	<path fill="#666666" d="M75.545,21.441c-0.34-0.085-0.538-0.314-0.598-0.698c1.208-0.704,1.892-2.172,1.892-4.116
		c0-2.524-1.784-4.578-3.977-4.578c-2.192,0-3.976,2.054-3.976,4.578c0,1.943,0.682,3.412,1.892,4.116
		c-0.061,0.384-0.258,0.613-0.599,0.698c-0.525,0.131-0.989,0.269-1.398,0.421c-0.53,0.237-0.546,0.676-0.379,0.983
		c0.161,0.294,0.51,0.446,1.262,0.191c0.065-0.022,0.129-0.041,0.191-0.056c0.204-0.059,0.424-0.119,0.659-0.179
		c0.862-0.211,1.757-0.984,1.682-2.524c-0.013-0.277-0.188-0.522-0.448-0.622c-1.315-0.505-1.458-2.287-1.458-3.029
		c0-1.751,1.156-3.174,2.573-3.174c1.42,0,2.574,1.423,2.574,3.174c0,0.742-0.142,2.522-1.459,3.029
		c-0.259,0.1-0.435,0.345-0.448,0.622c-0.074,1.54,0.821,2.313,1.683,2.524c2.536,0.623,3.108,1.368,3.218,2.748h-5.302
		c-0.61,0-0.777,0.341-0.777,0.729c0,0.333,0.174,0.674,0.798,0.674h6.004c0.388,0,0.702-0.313,0.702-0.703
		C79.855,23.443,78.768,22.233,75.545,21.441z"/>
	<path fill="#7FA436" d="M70.988,25.496c-0.178-0.205-0.377-0.398-0.603-0.581c-0.428-0.334-1.101-0.753-2.114-1.139
		c-0.03-0.013-0.059-0.022-0.088-0.037l0,0c-0.441-0.161-0.946-0.322-1.519-0.466c0,0-0.001,0.001-0.002,0.001
		c-0.776-0.174-1.302-0.532-1.378-1.484c1.703-0.897,2.668-2.911,2.668-5.615c0-3.381-2.372-6.132-5.29-6.132
		c-0.011,0-0.018,0-0.029,0c-0.008,0-0.016,0-0.026,0c-2.918,0-5.29,2.751-5.29,6.132c0,2.704,0.965,4.717,2.667,5.615
		c-0.075,0.952-0.602,1.311-1.377,1.484c-0.002,0-0.002-0.001-0.003-0.001c-0.573,0.144-1.077,0.305-1.519,0.466l0,0
		c-0.03,0.015-0.059,0.024-0.087,0.037c-1.014,0.386-1.686,0.805-2.115,1.139c-0.224,0.183-0.424,0.376-0.602,0.581
		c-0.669,0.815-0.96,1.799-1.085,2.534c-0.086,0.553-0.108,1.105-0.108,1.634c0,0.388,0.313,0.703,0.703,0.703h8.842h8.845
		c0.389,0,0.703-0.315,0.703-0.703c0-0.528-0.021-1.081-0.106-1.634C71.948,27.295,71.657,26.312,70.988,25.496z M62.633,28.962
		h-8.124c0.127-2.408,1.042-3.496,4.739-4.402c0.534-0.131,2.264-0.752,2.144-3.253c-0.012-0.277-0.188-0.522-0.449-0.621
		c-1.412-0.544-2.223-2.188-2.223-4.51c0-2.607,1.743-4.729,3.888-4.729c0.01,0,0.018,0,0.026,0c0.012,0,0.019,0,0.029,0
		c2.144,0,3.887,2.122,3.887,4.729c0,2.323-0.811,3.966-2.223,4.51c-0.261,0.099-0.436,0.344-0.449,0.621
		c-0.121,2.501,1.609,3.122,2.144,3.253c3.695,0.906,4.61,1.994,4.739,4.402H62.633z"/>
	<path fill="#666666" d="M53.521,19.656c-0.26,0.1-0.435,0.345-0.447,0.622c-0.076,1.54,0.819,2.313,1.681,2.524
		c0.236,0.06,0.455,0.12,0.659,0.179c0.062,0.015,0.127,0.033,0.193,0.056c0.75,0.255,1.101,0.103,1.261-0.191
		c0.167-0.308,0.152-0.746-0.379-0.983c-0.411-0.152-0.874-0.29-1.399-0.421c-0.34-0.085-0.537-0.314-0.599-0.698
		c1.209-0.704,1.891-2.172,1.891-4.116c0-2.524-1.783-4.578-3.975-4.578c-2.192,0-3.977,2.054-3.977,4.578
		c0,1.943,0.683,3.412,1.892,4.116c-0.061,0.384-0.258,0.613-0.598,0.698c-3.223,0.792-4.311,2.002-4.311,4.809
		c0,0.39,0.314,0.703,0.701,0.703h6.006c0.623,0,0.796-0.341,0.796-0.674c0-0.388-0.165-0.729-0.775-0.729H46.84
		c0.109-1.38,0.682-2.125,3.217-2.748c0.863-0.211,1.757-0.984,1.683-2.524c-0.014-0.277-0.189-0.522-0.449-0.622
		c-1.316-0.506-1.458-2.287-1.458-3.029c0-1.751,1.155-3.174,2.573-3.174c1.418,0,2.572,1.423,2.572,3.174
		C54.979,17.369,54.837,19.151,53.521,19.656z"/>
</g>
<g>
	<path fill="#666666" d="M114.867,13.011h-3.121V8.702c0-0.49-0.4-0.892-0.891-0.892h-19.61c-0.49,0-0.892,0.402-0.892,0.892v18.911
		c0,0.06,0,0.134,0.015,0.193c0.044,0.178-0.015,4.22,4.368,4.22h17.796c0.135,0,0.268-0.03,0.387-0.089
		c0.119-0.061,2.838-0.204,2.838-4.131V13.902C115.758,13.412,115.357,13.011,114.867,13.011z M113.975,27.807
		c0,1.704-0.746,2.437-1.678,2.437h-17.56c-2.6,0-2.466-2.273-2.6-2.748V9.594h17.828V26.38c0,0.491,0.4,0.893,0.891,0.893
		s0.891-0.401,0.891-0.893V14.793h2.229V27.807z"/>
	<path fill="#7FA436" d="M100.004,13.739c0-0.515-0.42-0.937-0.936-0.937h-4.367c-0.515,0-0.936,0.421-0.936,0.937v4.99
		c0,0.515,0.421,0.937,0.936,0.937h4.367c0.516,0,0.936-0.422,0.936-0.937V13.739z M95.637,14.675h2.496v3.118h-2.496V14.675z
		 M95.637,14.675"/>
	<path fill="#7FA436" d="M94.389,28.4h12.166c0.516,0,0.937-0.422,0.937-0.938c0-0.514-0.421-0.936-0.937-0.936H94.389
		c-0.515,0-0.936,0.422-0.936,0.936C93.454,27.979,93.875,28.4,94.389,28.4L94.389,28.4z M94.389,28.4"/>
	<path fill="#7FA436" d="M94.389,24.306h12.166c0.516,0,0.937-0.422,0.937-0.936c0-0.515-0.421-0.937-0.937-0.937H94.389
		c-0.515,0-0.936,0.422-0.936,0.937C93.454,23.884,93.875,24.306,94.389,24.306L94.389,24.306z M94.389,24.306"/>
	<path fill="#7FA436" d="M102.969,14.83h3.586c0.516,0,0.937-0.421,0.937-0.936c0-0.515-0.421-0.936-0.937-0.936h-3.586
		c-0.516,0-0.937,0.42-0.937,0.936C102.032,14.409,102.453,14.83,102.969,14.83L102.969,14.83z M102.969,14.83"/>
	<path fill="#7FA436" d="M102.969,19.548h3.586c0.516,0,0.937-0.421,0.937-0.937c0-0.514-0.421-0.935-0.937-0.935h-3.586
		c-0.516,0-0.937,0.421-0.937,0.935C102.032,19.127,102.453,19.548,102.969,19.548L102.969,19.548z M102.969,19.548"/>
</g>
<g>
	<path fill="#666666" d="M159.32,15.384l-8.164-8.165c-0.98-0.978-2.57-0.978-3.551,0l-14.344,14.344
		c-0.979,0.978-0.979,2.571,0,3.549l8.166,8.164c0.979,0.979,2.57,0.979,3.547,0l14.346-14.343
		C160.299,17.955,160.299,16.363,159.32,15.384L159.32,15.384z M142.93,32.285c-0.113-0.038-0.225-0.098-0.318-0.191l-8.166-8.165
		c-0.002-0.002-0.002-0.004-0.004-0.006h8.488V32.285z M134.943,22.251L148.291,8.9l0.004,12.983
		c-0.004,0.196-0.172,0.367-0.367,0.367H134.943z M144.604,31.284v-7.361h3.324c0.545,0,1.057-0.214,1.439-0.597
		c0.387-0.386,0.598-0.896,0.598-1.44v-3.323h7.359L144.604,31.284z M149.965,16.889v-8.49c0.002,0.001,0.006,0.002,0.008,0.004
		l8.164,8.165c0.094,0.093,0.15,0.204,0.191,0.322L149.965,16.889z M149.965,16.889"/>
	<path fill="#7FA436" d="M133.344,10.033h8.568c0.449,0,0.812-0.365,0.812-0.816c0-0.45-0.363-0.815-0.812-0.815h-8.568
		c-0.449,0-0.816,0.365-0.816,0.815C132.527,9.668,132.895,10.033,133.344,10.033L133.344,10.033z M133.344,10.033"/>
	<path fill="#7FA436" d="M133.344,13.234h5.371c0.451,0,0.814-0.365,0.814-0.815c0-0.45-0.363-0.815-0.814-0.815h-5.371
		c-0.449,0-0.816,0.365-0.816,0.815C132.527,12.87,132.895,13.234,133.344,13.234L133.344,13.234z M133.344,13.234"/>
	<path fill="#7FA436" d="M133.344,16.339h3.469c0.449,0,0.814-0.365,0.814-0.814c0-0.45-0.365-0.816-0.814-0.816h-3.469
		c-0.449,0-0.816,0.366-0.816,0.816C132.527,15.974,132.895,16.339,133.344,16.339L133.344,16.339z M133.344,16.339"/>
	<path fill="#7FA436" d="M136.812,31.327h-3.469c-0.449,0-0.816,0.365-0.816,0.814c0,0.451,0.367,0.815,0.816,0.815h3.469
		c0.449,0,0.814-0.364,0.814-0.815C137.627,31.692,137.262,31.327,136.812,31.327L136.812,31.327z M136.812,31.327"/>
</g>
</svg>
